# xmcd CD database file
#
# Track frame offsets:
#	150
#	5542
#	29457
#	48682
#	70547
#	91440
#	112980
#	132687
#	151355
#	168965
#	189292
#
# Disc length: 2645 seconds
#
# Revision: 0
# Processed by: cddbd v1.5PL3 Copyright (c) Steve Scherf et al.
# Submitted via: CDex 1.51
#
DISCID=8c0a530b
DTITLE=市原真紀 - I WILL
DYEAR=1995
DGENRE=JPop
TTITLE0=星の夜は･･･ 〜Instrumental〜
TTITLE1=太陽があれば
TTITLE2=約束だからね
TTITLE3=きっと 〜Album Version〜
TTITLE4=Fin 〜Night Version〜
TTITLE5=crime
TTITLE6=それでも会いたい
TTITLE7=夏の一秒
TTITLE8=努力のくすり 〜Remix〜
TTITLE9=夜が明けたら 〜Album Version〜
TTITLE10=星の夜は･･･
EXTD=YEAR: 1995
EXTT0=
EXTT1=
EXTT2=
EXTT3=
EXTT4=
EXTT5=
EXTT6=
EXTT7=
EXTT8=
EXTT9=
EXTT10=
PLAYORDER=
